<svg width="42" height="28" viewBox="0 0 42 28" fill="none" xmlns="http://www.w3.org/2000/svg">
<g clip-path="url(#clip0_32_12)">
<path d="M11.8768 10.1455C11.8768 10.7196 11.9326 11.185 12.0299 11.5263C12.1534 11.9103 12.3021 12.2836 12.4748 12.6432C12.5444 12.7673 12.5721 12.8913 12.5721 13C12.5721 13.1551 12.4888 13.3102 12.308 13.4654L11.4319 14.1169C11.3067 14.2101 11.1815 14.2566 11.0701 14.2566C10.9311 14.2566 10.792 14.179 10.6529 14.0393C10.4654 13.8149 10.2977 13.5707 10.1523 13.3102C10.0132 13.0467 9.87409 12.7517 9.72118 12.395C8.63629 13.8221 7.27337 14.5357 5.63242 14.5358C4.46429 14.5358 3.53242 14.1634 2.8509 13.4189C2.16955 12.6741 1.8219 11.6813 1.8219 10.4403C1.8219 9.12177 2.23911 8.05137 3.08748 7.24467C3.93568 6.43798 5.0623 6.03463 6.49473 6.03463C6.96756 6.03463 7.45433 6.08112 7.96883 6.15871C8.48349 6.23631 9.01194 6.36039 9.56827 6.50002V5.36758C9.56827 4.18846 9.34564 3.3664 8.91449 2.88546C8.46955 2.40452 7.71847 2.17173 6.64763 2.17173C6.16086 2.17173 5.66031 2.23395 5.14564 2.37359C4.63098 2.51322 4.13042 2.68378 3.64365 2.90101C3.42118 3.00954 3.25433 3.07158 3.15688 3.10269C3.05942 3.1338 2.99002 3.14917 2.93441 3.14917C2.73967 3.14917 2.64238 2.99398 2.64238 2.66823V1.90802C2.64238 1.65986 2.67027 1.47374 2.73967 1.36522C2.80923 1.25652 2.93441 1.14799 3.12915 1.03947C3.61587 0.76008 4.19993 0.527357 4.88134 0.3413C5.56302 0.139627 6.2862 0.0466598 7.05106 0.0466598C8.70613 0.0466598 9.91609 0.465379 10.6949 1.30318C11.4598 2.1408 11.8492 3.41288 11.8492 5.11942V10.1455H11.8768ZM6.23042 12.5035C6.68947 12.5035 7.1623 12.4106 7.66285 12.2243C8.16357 12.0382 8.60867 11.6969 8.98405 11.2315C9.20668 10.9368 9.37353 10.6111 9.45688 10.2387C9.54038 9.86642 9.596 9.41641 9.596 8.88899V8.23748C9.17423 8.12306 8.74706 8.03501 8.31648 7.97377C7.88289 7.9124 7.44629 7.88129 7.00923 7.88062C6.07735 7.88062 5.396 8.08229 4.93712 8.5012C4.47824 8.9201 4.2556 9.50956 4.2556 10.2851C4.2556 11.0142 4.42245 11.5572 4.7701 11.9296C5.10397 12.3174 5.59074 12.5035 6.23042 12.5035ZM17.398 14.179C17.1476 14.179 16.9808 14.1325 16.8695 14.0238C16.7583 13.9308 16.6609 13.7136 16.5775 13.4189L13.3094 1.42726C13.2257 1.11688 13.184 0.915209 13.184 0.806686C13.184 0.558529 13.2953 0.418712 13.5179 0.418712H14.8808C15.1449 0.418712 15.3259 0.465379 15.4232 0.573902C15.5344 0.667052 15.6179 0.884281 15.7013 1.17892L18.0377 11.4487L20.2072 1.17892C20.2768 0.868725 20.3603 0.667052 20.4714 0.573902C20.5828 0.480934 20.7775 0.418895 21.0279 0.418895H22.1404C22.4045 0.418895 22.5855 0.465379 22.6966 0.573902C22.808 0.667052 22.9052 0.884281 22.9609 1.17892L25.1583 11.5728L27.5641 1.17892C27.6475 0.868725 27.7449 0.667052 27.8422 0.573902C27.9534 0.480934 28.1342 0.418895 28.3846 0.418895H29.6779C29.9005 0.418895 30.0257 0.542974 30.0257 0.806686C30.0257 0.884281 30.0118 0.961876 29.9978 1.05484C29.9839 1.14781 29.9562 1.27207 29.9005 1.44282L26.5487 13.4343C26.4654 13.7447 26.3681 13.9464 26.2567 14.0393C26.1455 14.1325 25.9647 14.1945 25.7284 14.1945H24.5324C24.2681 14.1945 24.0873 14.148 23.9759 14.0393C23.8647 13.9308 23.7674 13.7291 23.7118 13.4189L21.556 3.41288L19.4143 13.4032C19.3449 13.7136 19.2614 13.9153 19.1502 14.0238C19.0389 14.1325 18.8442 14.179 18.594 14.179H17.398ZM35.2688 14.5979C34.5456 14.5979 33.8225 14.5047 33.1272 14.3186C32.4317 14.1325 31.8895 13.9306 31.5279 13.6982C31.3052 13.5584 31.1522 13.4034 31.0967 13.2638C31.0426 13.1268 31.0142 12.979 31.0132 12.8293V12.0382C31.0132 11.7124 31.1244 11.5572 31.3331 11.5572C31.4183 11.5576 31.5029 11.5733 31.5835 11.6039C31.6668 11.635 31.792 11.6969 31.9311 11.7589C32.4223 12 32.9351 12.1821 33.4609 12.3019C34.0056 12.4251 34.5601 12.4874 35.1159 12.488C35.992 12.488 36.6735 12.3174 37.1464 11.9761C37.6192 11.6348 37.8695 11.1385 37.8695 10.5024C37.8695 10.0681 37.7444 9.71124 37.494 9.41641C37.2437 9.12159 36.7708 8.85806 36.0895 8.60972L34.0728 7.91173C33.0576 7.55487 32.3067 7.02744 31.8476 6.32927C31.3888 5.64666 31.1523 4.88663 31.1523 4.07994C31.1523 3.42844 31.2775 2.85441 31.5279 2.35785C31.7781 1.86154 32.1119 1.42726 32.5291 1.08595C32.9464 0.729091 33.4192 0.465379 33.9755 0.279261C34.5317 0.0931435 35.1158 0.0155487 35.7277 0.0155487C36.0337 0.0155487 36.3536 0.0311043 36.6596 0.0775879C36.9795 0.124072 37.2715 0.186111 37.5636 0.24815C37.8417 0.325745 38.106 0.40334 38.3563 0.49649C38.6066 0.589457 38.8013 0.682486 38.9404 0.775575C39.1351 0.899836 39.2741 1.02391 39.3576 1.16355C39.441 1.28763 39.4828 1.45825 39.4828 1.67542V2.40452C39.4828 2.73027 39.3715 2.90101 39.1629 2.90101C39.0516 2.90101 38.8708 2.83879 38.6346 2.71471C37.8416 2.31137 36.9515 2.10969 35.9643 2.10969C35.1715 2.10969 34.5456 2.24933 34.1145 2.54415C33.6835 2.83879 33.4609 3.2888 33.4609 3.92475C33.4609 4.35921 33.6 4.73144 33.8781 5.02627C34.1562 5.32109 34.6708 5.61573 35.408 5.87944L37.3828 6.57761C38.384 6.93448 39.1072 7.43079 39.5384 8.06674C39.9695 8.70269 40.1782 9.43197 40.1782 10.2387C40.1782 10.9057 40.0529 11.5107 39.8165 12.0382C39.5663 12.5656 39.2324 13.031 38.8013 13.4034C38.3701 13.7912 37.8556 14.0705 37.2576 14.2721C36.6317 14.4894 35.9781 14.5979 35.2688 14.5979Z" fill="#252F3E"/>
<path d="M37.8973 22.1372C33.3219 25.907 26.6741 27.9081 20.9583 27.9081C12.9476 27.9081 5.72988 24.6038 0.278244 19.1121C-0.152912 18.6778 0.236408 18.0884 0.750908 18.4295C6.64764 22.2459 13.9212 24.5573 21.4451 24.5573C26.5212 24.5573 32.098 23.3784 37.2299 20.9583C37.9947 20.5703 38.6484 21.5168 37.8973 22.1372ZM39.8027 19.7171C39.2186 18.8795 35.9364 19.3138 34.4484 19.5155C34.0033 19.5777 33.9337 19.1432 34.3371 18.8175C36.9516 16.7696 41.2491 17.3593 41.7496 18.0417C42.2504 18.7399 41.6105 23.5334 39.1629 25.8294C38.7875 26.1862 38.4259 26.0001 38.5927 25.5347C39.1489 23.9987 40.3868 20.5394 39.8027 19.7171Z" fill="#FF9900"/>
</g>
<defs>
<clipPath id="clip0_32_12">
<rect width="42" height="28" fill="white"/>
</clipPath>
</defs>
</svg>
