<svg width="36" height="36" viewBox="0 0 36 36" fill="none" xmlns="http://www.w3.org/2000/svg">
<path d="M22.6419 12.9924L25.0867 10.5475L25.2497 9.51816C20.7947 5.46718 13.7128 5.9266 9.69655 10.4767C8.58112 11.7403 7.75354 13.3159 7.31226 14.9429L8.18779 14.8194L13.0773 14.0132L13.4548 13.6272C15.6297 11.2386 19.3071 10.9171 21.8184 12.9494L22.6419 12.9924Z" fill="#EA4335"/>
<path d="M28.5694 14.871C28.0076 12.8016 26.8538 10.9412 25.2497 9.51828L21.8184 12.9495C22.5335 13.5338 23.1066 14.2729 23.4945 15.111C23.8823 15.9491 24.0748 16.8643 24.0573 17.7876V18.3966C25.7438 18.3966 27.1111 19.7638 27.1111 21.4503C27.1111 23.1368 25.7438 24.47 24.0573 24.47H17.9411L17.3406 25.1219V28.7847L17.9411 29.3595H24.0573C28.4441 29.3937 32.0281 25.8994 32.0622 21.5126C32.0725 20.2034 31.759 18.912 31.1496 17.7533C30.5403 16.5946 29.6539 15.6044 28.5694 14.871Z" fill="#4285F4"/>
<path d="M11.8334 29.3594H17.9411V24.4698H11.8334C11.4011 24.4698 10.9738 24.3762 10.581 24.1953L9.71464 24.4613L7.25272 26.906L7.03827 27.7381C8.41893 28.7805 10.1033 29.3668 11.8334 29.3594Z" fill="#34A853"/>
<path d="M11.8335 13.4985C7.44654 13.5247 3.9115 17.1022 3.93752 21.489C3.94478 22.6979 4.22786 23.8892 4.76518 24.9721C5.30251 26.055 6.07991 27.0011 7.03816 27.7381L10.5809 24.1953C9.0439 23.5009 8.36088 21.6919 9.05529 20.155C9.74969 18.6181 11.5587 17.935 13.0954 18.6292C13.7727 18.9353 14.3152 19.4777 14.6212 20.155L18.164 16.6123C17.4204 15.6401 16.4621 14.8532 15.3638 14.313C14.2656 13.7728 13.0572 13.494 11.8333 13.4984" fill="#FBBC05"/>
</svg>
