<svg width="32" height="32" viewBox="0 0 32 32" fill="none" xmlns="http://www.w3.org/2000/svg">
<path d="M10.7364 1.11746H20.0842L10.3805 29.8685C10.2808 30.164 10.091 30.4208 9.83762 30.6027C9.58429 30.7846 9.28025 30.8825 8.96838 30.8824H1.69372C1.45745 30.8824 1.22458 30.8261 1.01435 30.7183C0.804123 30.6105 0.622578 30.4542 0.484718 30.2623C0.346803 30.0704 0.256605 29.8485 0.221603 29.6148C0.1866 29.3811 0.207801 29.1425 0.283448 28.9187L9.32427 2.13117C9.42403 1.83568 9.61392 1.57892 9.86723 1.397C10.1205 1.21507 10.4245 1.11715 10.7364 1.117V1.11746Z" fill="url(#paint0_linear_32_15)"/>
<path d="M24.32 20.4017H9.49674C9.3589 20.4015 9.22418 20.4428 9.11015 20.5202C8.99612 20.5976 8.90807 20.7076 8.85749 20.8359C8.80692 20.9641 8.79615 21.1046 8.82661 21.239C8.85707 21.3735 8.92734 21.4956 9.02824 21.5895L18.5532 30.48C18.8307 30.7385 19.1958 30.8823 19.575 30.8825H27.9685L24.32 20.4017Z" fill="#0078D4"/>
<path d="M10.7364 1.11746C10.4211 1.11613 10.1136 1.21572 9.85895 1.40167C9.6043 1.58762 9.41581 1.85017 9.32107 2.15092L0.294723 28.8943C0.214197 29.119 0.188948 29.3597 0.221111 29.5962C0.253274 29.8327 0.341902 30.0579 0.479504 30.2529C0.617106 30.4479 0.799635 30.6069 1.01166 30.7165C1.22369 30.8261 1.45898 30.883 1.69764 30.8824H9.16024C9.43819 30.8328 9.69797 30.7103 9.91305 30.5274C10.1281 30.3445 10.2908 30.1077 10.3844 29.8414L12.1843 24.5364L18.6142 30.5334C18.8836 30.7563 19.2215 30.8795 19.5711 30.8824H27.9335L24.2658 20.4017L13.5744 20.4042L20.118 1.11746H10.7364Z" fill="url(#paint1_linear_32_15)"/>
<path d="M22.6759 2.12978C22.5762 1.83476 22.3865 1.57841 22.1335 1.39681C21.8806 1.21522 21.577 1.11752 21.2656 1.11746H10.8478C11.1592 1.11756 11.4627 1.21529 11.7156 1.39688C11.9686 1.57847 12.1582 1.83479 12.2578 2.12978L21.2989 28.9184C21.3746 29.1423 21.3959 29.381 21.3609 29.6148C21.326 29.8485 21.2359 30.0706 21.0981 30.2626C20.9603 30.4546 20.7787 30.611 20.5685 30.7189C20.3582 30.8267 20.1252 30.8829 19.8889 30.8829H30.3071C30.5434 30.8827 30.7762 30.8263 30.9863 30.7184C31.1965 30.6104 31.3779 30.454 31.5157 30.2621C31.6534 30.0702 31.7435 29.8482 31.7785 29.6146C31.8135 29.3809 31.7924 29.1423 31.7169 28.9184L22.6759 2.12978Z" fill="url(#paint2_linear_32_15)"/>
<defs>
<linearGradient id="paint0_linear_32_15" x1="14.1435" y1="3.32316" x2="4.43567" y2="32.002" gradientUnits="userSpaceOnUse">
<stop stop-color="#114A8B"/>
<stop offset="1" stop-color="#0669BC"/>
</linearGradient>
<linearGradient id="paint1_linear_32_15" x1="17.1759" y1="16.6883" x2="14.9304" y2="17.4474" gradientUnits="userSpaceOnUse">
<stop stop-opacity="0.3"/>
<stop offset="0.071" stop-opacity="0.2"/>
<stop offset="0.321" stop-opacity="0.1"/>
<stop offset="0.623" stop-opacity="0.05"/>
<stop offset="1" stop-opacity="0"/>
</linearGradient>
<linearGradient id="paint2_linear_32_15" x1="15.9409" y1="2.4866" x2="26.5972" y2="30.8767" gradientUnits="userSpaceOnUse">
<stop stop-color="#3CCBF4"/>
<stop offset="1" stop-color="#2892DF"/>
</linearGradient>
</defs>
</svg>
