<svg width="70" height="70" viewBox="0 0 70 70" fill="none" xmlns="http://www.w3.org/2000/svg">
<path d="M17.5 64.1667C15.8958 64.1667 14.5231 63.596 13.3817 62.4546C12.2403 61.3132 11.6686 59.9394 11.6667 58.3333V29.1667C11.6667 27.5625 12.2383 26.1897 13.3817 25.0483C14.525 23.9069 15.8978 23.3353 17.5 23.3333H20.4167V17.5C20.4167 13.4653 21.839 10.0265 24.6838 7.18374C27.5285 4.34096 30.9672 2.9186 35 2.91666C39.0328 2.91471 42.4725 4.33708 45.3192 7.18374C48.1658 10.0304 49.5872 13.4692 49.5833 17.5V23.3333H52.5C54.1042 23.3333 55.4779 23.905 56.6213 25.0483C57.7646 26.1917 58.3353 27.5644 58.3333 29.1667V58.3333C58.3333 59.9375 57.7626 61.3112 56.6213 62.4546C55.4799 63.5979 54.1061 64.1686 52.5 64.1667H17.5ZM17.5 58.3333H52.5V29.1667H17.5V58.3333ZM35 49.5833C36.6042 49.5833 37.9779 49.0126 39.1213 47.8712C40.2646 46.7299 40.8353 45.3561 40.8333 43.75C40.8314 42.1439 40.2607 40.7711 39.1213 39.6317C37.9818 38.4922 36.6081 37.9205 35 37.9167C33.392 37.9128 32.0192 38.4844 30.8817 39.6317C29.7442 40.7789 29.1725 42.1517 29.1667 43.75C29.1608 45.3483 29.7325 46.7221 30.8817 47.8712C32.0308 49.0204 33.4036 49.5911 35 49.5833ZM26.25 23.3333H43.75V17.5C43.75 15.0694 42.8993 13.0035 41.1979 11.3021C39.4965 9.60069 37.4306 8.74999 35 8.74999C32.5695 8.74999 30.5035 9.60069 28.8021 11.3021C27.1007 13.0035 26.25 15.0694 26.25 17.5V23.3333Z" fill="#959598"/>
</svg>
