<svg width="70" height="70" viewBox="0 0 70 70" fill="none" xmlns="http://www.w3.org/2000/svg">
<path d="M20.4167 26.25L35 36.4583L49.5833 26.25" stroke="#959598" stroke-width="1.5" stroke-linecap="round" stroke-linejoin="round"/>
<path d="M5.83333 49.5833V20.4167C5.83333 18.8696 6.44792 17.3858 7.54188 16.2919C8.63584 15.1979 10.1196 14.5833 11.6667 14.5833H58.3333C59.8804 14.5833 61.3642 15.1979 62.4581 16.2919C63.5521 17.3858 64.1667 18.8696 64.1667 20.4167V49.5833C64.1667 51.1304 63.5521 52.6142 62.4581 53.7081C61.3642 54.8021 59.8804 55.4167 58.3333 55.4167H11.6667C10.1196 55.4167 8.63584 54.8021 7.54188 53.7081C6.44792 52.6142 5.83333 51.1304 5.83333 49.5833Z" stroke="#959598" stroke-width="1.5"/>
</svg>
