<svg width="70" height="70" viewBox="0 0 70 70" fill="none" xmlns="http://www.w3.org/2000/svg">
<path d="M56.9421 64.1375H13.09C8.70625 64.1375 5.32291 60.83 5.8975 56.4842L6.23 53.9496C6.83375 50.4496 10.0362 48.2475 13.5129 47.4921L34.79 43.75H35.21L56.4871 47.4921C60.0221 48.3088 63.1662 50.3883 63.77 53.9496L64.1025 56.5163C64.6771 60.8621 61.2937 64.1667 56.91 64.1667L56.9421 64.1375ZM49.5833 20.4167C49.5833 24.2844 48.0469 27.9937 45.312 30.7287C42.5771 33.4636 38.8677 35 35 35C31.1323 35 27.4229 33.4636 24.688 30.7287C21.9531 27.9937 20.4167 24.2844 20.4167 20.4167C20.4167 16.5489 21.9531 12.8396 24.688 10.1047C27.4229 7.3698 31.1323 5.83334 35 5.83334C38.8677 5.83334 42.5771 7.3698 45.312 10.1047C48.0469 12.8396 49.5833 16.5489 49.5833 20.4167Z" stroke="#959598" stroke-width="1.5" stroke-linecap="round" stroke-linejoin="round"/>
</svg>
